<svg xmlns="http://www.w3.org/2000/svg" width="447" height="532" viewBox="0 0 447 532"><rect width="100%" height="100%" fill="#EEE"/><path fill="#31343C" d="M98.66 271.25h12.98V257.3q0-1.98.26-4.37zm19.32 0h5.37v4.22q0 .59-.38 1.02-.39.43-1.1.43h-3.89v10.41h-6.34v-10.41h-18q-.74 0-1.3-.46t-.7-1.14l-.77-3.68 20.21-27h6.9zm14.9 0h12.98V257.3q0-1.98.26-4.37zm19.32 0h5.37v4.22q0 .59-.38 1.02-.39.43-1.1.43h-3.89v10.41h-6.34v-10.41h-18q-.74 0-1.3-.46t-.7-1.14l-.77-3.68 20.21-27h6.9zm9.62-26.58h29.47v3.16q0 1.42-.3 2.29-.29.87-.59 1.46l-16.16 33.27q-.51 1.03-1.42 1.76-.91.72-2.45.72h-5.28l16.49-32.6q.56-1 1.11-1.84.54-.84 1.22-1.61H163.5q-.68 0-1.18-.5t-.5-1.18zm76.84 32.9-3.86 3.8-10-10-10.09 10.06-3.86-3.81 10.08-10.11-9.61-9.62 3.83-3.84 9.62 9.62 9.56-9.56 3.89 3.84-9.59 9.59zm31.01-26.29-1.51 8.88q1.42-.29 2.72-.43 1.3-.13 2.51-.13 3.36 0 5.93 1 2.56 1.01 4.3 2.78t2.63 4.14q.88 2.38.88 5.12 0 3.39-1.19 6.19-1.2 2.81-3.32 4.8t-5.03 3.08-6.33 1.09q-2 0-3.8-.41t-3.38-1.11q-1.58-.69-2.92-1.59t-2.41-1.9l2.25-3.1q.7-1 1.85-1 .74 0 1.51.47t1.75 1.03q.99.56 2.33 1.03 1.35.48 3.23.48 2.01 0 3.54-.65 1.54-.65 2.56-1.82 1.01-1.16 1.53-2.77t.52-3.5q0-3.48-2.02-5.44t-5.98-1.96q-3.04 0-6.22 1.12l-4.55-1.3 3.54-20.71h21.07v3.1q0 1.56-.98 2.54-.97.97-3.3.97zm27.76 5.96-3.84-.68q.45-3.07 1.71-5.38 1.27-2.32 3.18-3.87 1.9-1.55 4.36-2.33t5.3-.78q2.95 0 5.32.84 2.38.84 4.06 2.33t2.58 3.5q.9 2 .9 4.33 0 2.04-.46 3.59t-1.31 2.7q-.86 1.15-2.13 1.94-1.26.8-2.86 1.33 3.84 1.21 5.73 3.69 1.88 2.48 1.88 6.22 0 3.19-1.18 5.64t-3.18 4.11q-2.01 1.67-4.65 2.53-2.64.85-5.59.85-3.21 0-5.6-.74-2.39-.73-4.16-2.18-1.77-1.44-3.01-3.54-1.24-2.09-2.13-4.84l3.22-1.32q1.27-.54 2.37-.28 1.11.25 1.61 1.19.53 1.03 1.17 2.04.63 1 1.52 1.78.88.78 2.08 1.27 1.19.49 2.84.49 1.86 0 3.25-.61 1.38-.6 2.31-1.58.93-.97 1.39-2.17.46-1.19.46-2.4 0-1.53-.33-2.79-.32-1.25-1.35-2.14-1.04-.88-2.97-1.38t-5.18-.5v-5.2q2.69-.03 4.46-.5t2.82-1.31q1.04-.84 1.46-2.02.41-1.18.41-2.6 0-3.01-1.68-4.57t-4.49-1.56q-1.29 0-2.39.37-1.09.36-1.96 1.03-.87.66-1.46 1.55-.59.88-.88 1.94-.5 1.36-1.32 1.8-.81.45-2.28.21m45.19 23.3h10.95q1.18 0 1.87.67.69.66.69 1.75v4.37h-29.26v-2.42q0-.74.31-1.55t.99-1.46l12.95-12.98q1.62-1.65 2.9-3.15 1.29-1.51 2.14-2.98.86-1.48 1.31-3 .46-1.52.46-3.2 0-1.53-.44-2.7-.44-1.16-1.25-1.96-.82-.8-1.95-1.19-1.14-.4-2.55-.4-1.3 0-2.41.37-1.1.36-1.96 1.03-.85.66-1.44 1.55-.59.88-.89 1.94-.5 1.36-1.3 1.8-.79.45-2.3.21l-3.83-.68q.44-3.07 1.71-5.38 1.27-2.32 3.17-3.87t4.36-2.33q2.47-.78 5.3-.78 2.95 0 5.4.87t4.19 2.46q1.74 1.6 2.71 3.84.98 2.24.98 4.98 0 2.36-.7 4.37-.69 2.01-1.86 3.84-1.16 1.82-2.73 3.54-1.56 1.71-3.27 3.48l-9.62 9.82q1.39-.41 2.76-.63 1.37-.23 2.61-.23"/></svg>