<svg xmlns="http://www.w3.org/2000/svg" width="601" height="624" viewBox="0 0 601 624"><rect width="100%" height="100%" fill="#eee"/><path fill="#31343C" d="m156.04 283.08-17.16 21-2 2.48q1.68-.84 3.62-1.3t4.18-.46q3.28 0 6.38 1.08t5.46 3.26 3.8 5.42 1.44 7.56q0 4.04-1.48 7.58t-4.16 6.18-6.46 4.16-8.34 1.52q-4.64 0-8.32-1.48t-6.28-4.14-3.98-6.4-1.38-8.3q0-4.08 1.66-8.38t5.14-8.94l13.8-18.52q.72-.96 2.1-1.64t3.18-.68zm-14.92 50.4q2.36 0 4.34-.8t3.4-2.24 2.22-3.38.8-4.22q0-2.48-.76-4.46t-2.16-3.36-3.36-2.1-4.32-.72-4.28.8-3.28 2.22-2.12 3.36-.76 4.18q0 2.4.66 4.38t1.96 3.38 3.22 2.18 4.44.78M208.8 312q0 7.56-1.62 13.14t-4.48 9.22-6.76 5.42-8.42 1.78-8.38-1.78-6.7-5.42-4.44-9.22-1.6-13.14q0-7.6 1.6-13.16t4.44-9.2 6.7-5.42 8.38-1.78 8.42 1.78 6.76 5.42 4.48 9.2T208.8 312m-10.2 0q0-6.28-.92-10.4t-2.46-6.56-3.54-3.42-4.16-.98q-2.12 0-4.1.98t-3.5 3.42-2.42 6.56-.9 10.4.9 10.4 2.42 6.56 3.5 3.42 4.1.98q2.16 0 4.16-.98t3.54-3.42 2.46-6.56.92-10.4m43.2 21.52h10.4v7.4h-32v-7.4h11.72V299.8q0-2 .12-4.12l-8.32 6.96q-.72.56-1.42.7t-1.32.02-1.1-.42-.72-.66l-3.12-4.28 17.64-15h8.12zm76.92-5.84-5.24 5.16-13.56-13.56-13.68 13.64-5.24-5.16 13.68-13.72L281.64 301l5.2-5.2 13.04 13.04 12.96-12.96 5.28 5.2-13 13zm61.8-44.6-17.16 21-2 2.48q1.68-.84 3.62-1.3t4.18-.46q3.28 0 6.38 1.08t5.46 3.26 3.8 5.42 1.44 7.56q0 4.04-1.48 7.58t-4.16 6.18-6.46 4.16-8.34 1.52q-4.64 0-8.32-1.48t-6.28-4.14-3.98-6.4-1.38-8.3q0-4.08 1.66-8.38t5.14-8.94l13.8-18.52q.72-.96 2.1-1.64t3.18-.68zm-14.92 50.4q2.36 0 4.34-.8t3.4-2.24 2.22-3.38.8-4.22q0-2.48-.76-4.46t-2.16-3.36-3.36-2.1-4.32-.72-4.28.8-3.28 2.22-2.12 3.36-.76 4.18q0 2.4.66 4.38t1.96 3.38 3.22 2.18 4.44.78m47.68-1.76h14.84q1.6 0 2.54.9t.94 2.38v5.92h-39.68v-3.28q0-1 .42-2.1t1.34-1.98l17.56-17.6q2.2-2.24 3.94-4.28t2.9-4.04 1.78-4.06.62-4.34q0-2.08-.6-3.66t-1.7-2.66-2.64-1.62-3.46-.54q-1.76 0-3.26.5t-2.66 1.4-1.96 2.1-1.2 2.64q-.68 1.84-1.76 2.44t-3.12.28l-5.2-.92q.6-4.16 2.32-7.3t4.3-5.24 5.92-3.16 7.18-1.06q4 0 7.32 1.18t5.68 3.34 3.68 5.2 1.32 6.76q0 3.2-.94 5.92t-2.52 5.2-3.7 4.8-4.44 4.72L406 332.88q1.88-.56 3.74-.86t3.54-.3m32.88-12.6h17.6V300.2q0-2.68.36-5.92zm26.2 0h7.28v5.72q0 .8-.52 1.38t-1.48.58h-5.28v14.12h-8.6V326.8h-24.4q-1 0-1.76-.62t-.96-1.54l-1.04-5 27.4-36.6h9.36z"/></svg>