<svg xmlns="http://www.w3.org/2000/svg" width="1900" height="840" viewBox="0 0 1900 840"><rect width="100%" height="100%" fill="#ddd"/><path fill="#31343C" d="M460.345 479.985h28.99v20.63h-89.2v-20.63h32.67v-93.99q0-5.58.34-11.49l-23.19 19.4q-2.01 1.57-3.96 1.96t-3.68.05q-1.73-.33-3.07-1.17t-2.01-1.84l-8.69-11.93 49.17-41.81h22.63zm79.73-92.21q0 13.49 6.96 20.57 6.97 7.08 19.8 7.08 6.69 0 11.93-2.11 5.24-2.12 8.81-5.8 3.56-3.68 5.4-8.7t1.84-10.81q0-6.58-2-11.77-2.01-5.18-5.69-8.75t-8.75-5.46q-5.08-1.9-11.1-1.9-6.24 0-11.26 2.06-5.02 2.07-8.58 5.74-3.57 3.68-5.47 8.76-1.89 5.07-1.89 11.09m-13.5 112.84 50.07-62.55q1.89-2.34 3.57-4.57 1.67-2.23 3.23-4.46-5.58 3.56-12.27 5.4t-14.04 1.84q-8.37 0-16.39-2.89-8.03-2.9-14.28-8.76-6.24-5.85-10.09-14.49-3.84-8.64-3.84-20.24 0-10.81 4.01-20.29t11.26-16.62q7.25-7.13 17.4-11.26 10.14-4.12 22.41-4.12 12.37 0 22.24 3.9t16.84 10.93q6.97 7.02 10.7 16.83 3.74 9.82 3.74 21.52 0 7.47-1.29 14.16-1.28 6.69-3.62 12.88t-5.69 12.1q-3.34 5.91-7.47 11.71l-36.9 52.62q-1.9 2.68-5.69 4.52t-8.58 1.84zm229.81-80.61q0 21.07-4.52 36.62-4.52 15.56-12.49 25.7-7.97 10.15-18.84 15.11t-23.47 4.96-23.36-4.96-18.68-15.11q-7.91-10.14-12.37-25.7-4.46-15.55-4.46-36.62 0-21.19 4.46-36.69t12.37-25.64q7.92-10.15 18.68-15.11t23.36-4.96 23.47 4.96 18.84 15.11q7.97 10.14 12.49 25.64t4.52 36.69m-28.44 0q0-17.51-2.56-28.99-2.57-11.49-6.86-18.29t-9.87-9.53q-5.57-2.74-11.59-2.74-5.91 0-11.43 2.74-5.52 2.73-9.76 9.53-4.23 6.8-6.74 18.29-2.51 11.48-2.51 28.99 0 17.5 2.51 28.99 2.51 11.48 6.74 18.28 4.24 6.8 9.76 9.53 5.52 2.74 11.43 2.74 6.02 0 11.59-2.74 5.58-2.73 9.87-9.53t6.86-18.28q2.56-11.49 2.56-28.99m157.78 0q0 21.07-4.52 36.62-4.52 15.56-12.49 25.7-7.97 10.15-18.84 15.11t-23.47 4.96-23.36-4.96-18.68-15.11q-7.91-10.14-12.37-25.7-4.46-15.55-4.46-36.62 0-21.19 4.46-36.69t12.37-25.64q7.92-10.15 18.68-15.11t23.36-4.96 23.47 4.96 18.84 15.11q7.97 10.14 12.49 25.64t4.52 36.69m-28.44 0q0-17.51-2.56-28.99-2.57-11.49-6.86-18.29t-9.87-9.53q-5.57-2.74-11.59-2.74-5.91 0-11.43 2.74-5.52 2.73-9.76 9.53-4.23 6.8-6.74 18.29-2.51 11.48-2.51 28.99 0 17.5 2.51 28.99 2.51 11.48 6.74 18.28 4.24 6.8 9.76 9.53 5.52 2.74 11.43 2.74 6.02 0 11.59-2.74 5.58-2.73 9.87-9.53t6.86-18.28q2.56-11.49 2.56-28.99m205.5 43.7-14.61 14.39-37.8-37.8-38.13 38.02-14.61-14.38 38.14-38.25-36.35-36.35 14.49-14.49 36.35 36.35 36.13-36.13 14.72 14.5-36.24 36.23zm130.9 17.17q6.8 0 11.93-1.95t8.64-5.4q3.51-3.46 5.3-8.26 1.78-4.79 1.78-10.37 0-13.26-7.36-20.06-7.36-6.81-20.29-6.81t-20.29 6.81q-7.36 6.8-7.36 20.06 0 5.58 1.78 10.37 1.79 4.8 5.3 8.26 3.51 3.45 8.64 5.4t11.93 1.95m0-122.53q-6.13 0-10.59 1.89-4.46 1.9-7.42 5.07-2.95 3.18-4.35 7.31-1.39 4.12-1.39 8.69 0 4.8 1.17 9.32 1.17 4.51 3.96 8.02 2.79 3.52 7.36 5.63 4.57 2.12 11.26 2.12t11.26-2.12q4.57-2.11 7.36-5.63 2.79-3.51 3.96-8.02 1.17-4.52 1.17-9.32 0-4.57-1.45-8.69-1.45-4.13-4.35-7.31-2.9-3.17-7.36-5.07-4.46-1.89-10.59-1.89m27.21 58.2q14.71 4.79 21.74 14.66 7.02 9.87 7.02 24.14 0 10.71-4.07 19.4-4.07 8.7-11.43 14.83t-17.67 9.48q-10.31 3.34-22.8 3.34t-22.8-3.34q-10.32-3.35-17.68-9.48-7.35-6.13-11.42-14.83-4.07-8.69-4.07-19.4 0-14.27 7.02-24.14 7.03-9.87 21.74-14.66-11.7-4.91-17.56-13.94-5.85-9.03-5.85-21.74 0-9.14 3.73-17.06 3.74-7.92 10.43-13.77t16-9.14 20.46-3.29 20.46 3.29 16 9.14 10.42 13.77q3.74 7.92 3.74 17.06 0 12.71-5.85 21.74-5.86 9.03-17.56 13.94m67.79 23.3h49.06v-52.74q0-7.47 1-16.5zm73.03 0h20.29v15.95q0 2.23-1.45 3.84-1.45 1.62-4.12 1.62h-14.72v39.36h-23.97v-39.36h-68.02q-2.79 0-4.9-1.73-2.12-1.73-2.68-4.29l-2.9-13.94 76.38-102.02h26.09zm149.74-19.84q0 21.07-4.51 36.62-4.52 15.56-12.49 25.7-7.97 10.15-18.84 15.11t-23.47 4.96-23.36-4.96-18.68-15.11q-7.92-10.14-12.38-25.7-4.46-15.55-4.46-36.62 0-21.19 4.46-36.69t12.38-25.64q7.92-10.15 18.68-15.11t23.36-4.96 23.47 4.96 18.84 15.11q7.97 10.14 12.49 25.64 4.51 15.5 4.51 36.69m-28.43 0q0-17.51-2.56-28.99-2.57-11.49-6.86-18.29t-9.87-9.53q-5.57-2.74-11.59-2.74-5.91 0-11.43 2.74-5.52 2.73-9.76 9.53t-6.74 18.29q-2.51 11.48-2.51 28.99 0 17.5 2.51 28.99 2.5 11.48 6.74 18.28t9.76 9.53q5.52 2.74 11.43 2.74 6.02 0 11.59-2.74 5.58-2.73 9.87-9.53t6.86-18.28q2.56-11.49 2.56-28.99"/></svg>